:SAMPLES-PER-SECOND 30
:FULLY-SPECIFIED
:DEGREES
768
root  12.8869 38.5179 22.0024 -179.723 41.9306 176.639
RightUpLeg  10.9892 -23.8798 -11.9099
RightLeg  17.0021 -1.77298 2.11617
RightFoot  -17.4924 0.546656 12.3003
RightToes  5.82063e-011 0 -3.6325e-017
Spine  -9.12106 0.944951 0.0737895
Spine1  11.8713 2.04968 -2.63234
HEad  -20.1824 10.1336 -25.4202
LeftShoulder1  0.140704 3.11544 -30.2173
LeftArm  0.984691 18.262 -37.1661
LeftForeArm  22.7614 -13.403 -7.40815
LeftHand  -0.00909433 4.21694 -1.99008
RightShoulder  -0.583009 -5.26224 26.4048
RightArm  11.9109 -6.3208 45.4159
RightForeArm  6.31257 8.7088 6.56632
RightHand  -0.255461 1.33146 -4.54905
LeftUpLeg  -17.9571 -1.66169 -7.54419
LeftLeg  -3.78366 38.5521 -3.82186
LeftFoot  8.00822 -2.84023 16.508
LeftToes  2.58842e-009 -1.78069e-010 3.24654e-012
769
root  13.582 38.4111 21.1831 178.435 40.3106 174.255
RightUpLeg  11.5461 -28.2151 -15.5942
RightLeg  21.7452 2.58118 0.843857
RightFoot  -17.2995 0.704852 15.759
RightToes  5.82063e-011 0 -3.6325e-017
Spine  -9.74195 0.722126 -2.62952
Spine1  11.8515 2.30685 -3.43951
HEad  -18.0486 10.3679 -22.703
LeftShoulder1  0.0519239 3.36385 -30.9871
LeftArm  -0.772912 17.4696 -35.2527
LeftForeArm  23.9622 -11.3143 -7.90516
LeftHand  -0.0167659 4.81819 -1.55483
RightShoulder  -0.661401 -5.47377 26.883
RightArm  10.7944 -7.24008 47.1659
RightForeArm  8.04367 7.53664 6.32792
RightHand  -0.235049 1.04054 -4.3628
LeftUpLeg  -19.0901 -1.22596 -9.37732
LeftLeg  4.12538 36.7802 -0.664681
LeftFoot  5.94925 -2.70529 17.3818
LeftToes  2.58842e-009 -1.78069e-010 3.24654e-012
770
root  14.1297 38.3377 20.3705 177.169 38.0373 173.007
RightUpLeg  10.4492 -26.5331 -17.3874
RightLeg  28.5525 0.732518 0.15519
RightFoot  -14.5996 0.484626 21.871
RightToes  5.82063e-011 0 -3.6325e-017
Spine  -9.17983 0.581704 -2.83787
Spine1  11.0411 2.82219 -6.25284
HEad  -15.0799 11.1543 -19.6846
LeftShoulder1  0.143879 3.10881 -30.2678
LeftArm  -3.98909 16.7865 -35.2373
LeftForeArm  26.2702 -8.66412 -7.85837
LeftHand  -0.0156838 4.88647 -1.29622
RightShoulder  -0.690072 -5.55004 27.0385
RightArm  9.50657 -8.93239 49.1367
RightForeArm  9.48807 6.94168 5.91375
RightHand  -0.230241 1.04352 -4.27049
LeftUpLeg  -18.556 -0.762208 -11.4436
LeftLeg  8.39703 34.4474 1.56988
LeftFoot  3.94149 -2.28152 16.7108
LeftToes  2.58842e-009 -1.78069e-010 3.24654e-012
771
root  14.6172 38.325 19.6198 176.093 35.865 172.671
RightUpLeg  7.75177 -23.8175 -18.1999
RightLeg  37.4977 -0.441935 -0.614927
RightFoot  -7.89066 -0.739719 25.3235
RightToes  5.82063e-011 0 -3.6325e-017
Spine  -8.02595 0.554804 -3.38871
Spine1  10.5953 2.89417 -7.36056
HEad  -13.3837 11.0608 -20.1742
LeftShoulder1  0.187796 2.98555 -30.1292
LeftArm  -5.46164 16.295 -35.916
LeftForeArm  26.4942 -7.71291 -7.43177
LeftHand  -0.0208764 5.38152 -1.44298
RightShoulder  -0.599565 -5.3287 26.1378
RightArm  10.5103 -10.0055 50.7491
RightForeArm  9.57017 7.28584 6.37707
RightHand  -0.206104 0.435449 -4.17066
LeftUpLeg  -17.0302 -0.740532 -12.7336
LeftLeg  10.953 32.7198 2.99116
LeftFoot  2.29695 -2.07655 17.1135
LeftToes  2.58842e-009 -1.78069e-010 3.24654e-012
772
root  15.0288 38.3235 18.8615 174.936 34.5894 172.113
RightUpLeg  2.31232 -18.9822 -18.2957
RightLeg  48.2498 0.106829 -0.168697
RightFoot  3.18349 -2.25734 17.9567
RightToes  5.82063e-011 0 -3.6325e-017
Spine  -6.95329 0.939743 -3.43501
Spine1  10.4107 3.38454 -8.51537
HEad  -12.3386 11.6251 -20.7237
LeftShoulder1  0.199591 2.95009 -30.0554
LeftArm  -5.70635 15.2306 -36.7033
LeftForeArm  26.7308 -7.68136 -7.34469
LeftHand  -0.00494615 4.76141 -2.58322
RightShoulder  -0.510047 -5.07548 25.5829
RightArm  13.9521 -9.51993 51.1954
RightForeArm  9.68346 8.5808 7.49665
RightHand  -0.242949 1.02991 -4.51265
LeftUpLeg  -15.1028 -1.19505 -13.7415
LeftLeg  12.2899 32.4369 3.70891
LeftFoot  0.899973 -1.8578 17.1174
LeftToes  2.58842e-009 -1.78069e-010 3.24654e-012
773
root  15.4143 38.1991 18.2648 173.337 32.5855 171.538
RightUpLeg  -2.11447 -14.0455 -18.1716
RightLeg  56.826 1.65171 2.33157
RightFoot  10.0629 -2.43009 12.9848
RightToes  5.82063e-011 0 -3.6325e-017
Spine  -5.04953 0.846172 -6.03445
Spine1  10.8265 2.6829 -6.91958
HEad  -11.977 13.8111 -21.1237
LeftShoulder1  0.126557 3.15768 -30.7548
LeftArm  -4.39769 13.8708 -37.3205
LeftForeArm  26.0587 -8.87847 -7.73286
LeftHand  -0.0113735 5.13928 -2.19397
RightShoulder  -0.406713 -4.77134 25.0246
RightArm  17.5631 -7.60897 51.0837
RightForeArm  10.7072 10.3971 7.90401
RightHand  -0.240119 1.15631 -4.3858
LeftUpLeg  -13.4691 -0.950766 -14.9725
LeftLeg  15.0011 30.6463 4.94961
LeftFoot  -1.14688 -1.45884 16.3163
LeftToes  2.58842e-009 -1.78069e-010 3.24654e-012
774
root  15.7838 38.1251 17.6744 172.419 29.2062 171.94
RightUpLeg  -4.92796 -10.8648 -17.736
RightLeg  62.3209 3.30548 6.26981
RightFoot  6.48277 -2.0777 13.4787
RightToes  5.82063e-011 0 -3.6325e-017
Spine  -3.02303 0.51363 -5.62449
Spine1  11.0723 2.39119 -8.55771
HEad  -10.7948 15.1588 -20.6405
LeftShoulder1  0.275941 2.73062 -29.5055
LeftArm  -2.1112 12.5468 -38.6034
LeftForeArm  24.9731 -11.0005 -7.84669
LeftHand  0.00535251 3.97236 -2.04207
RightShoulder  -0.588591 -5.27631 26.4957
RightArm  20.2876 -6.16087 50.0791
RightForeArm  9.9882 13.229 7.2992
RightHand  -0.249363 1.60386 -4.28982
LeftUpLeg  -11.5454 -0.44073 -15.7263
LeftLeg  16.9714 27.317 5.53615
LeftFoot  -2.98098 -1.15772 15.9836
LeftToes  2.58842e-009 -1.78069e-010 3.24654e-012
775
root  16.1522 38.0931 17.0916 171.848 25.1395 172.805
RightUpLeg  -7.30066 -8.59577 -17
RightLeg  64.9513 3.77408 8.16005
RightFoot  5.08306 -1.87912 13.2103
RightToes  5.82063e-011 0 -3.6325e-017
Spine  -1.38918 -0.0194686 -6.66892
Spine1  11.4165 1.24122 -7.31208
HEad  -8.89336 17.2645 -20.1064
LeftShoulder1  0.261261 2.77125 -29.6292
LeftArm  -0.212239 10.4153 -39.7963
LeftForeArm  24.3023 -12.9943 -7.45537
LeftHand  0.00641853 3.60506 -1.34899
RightShoulder  -0.524094 -5.10633 25.9119
RightArm  19.333 -5.52572 50.2829
RightForeArm  7.27766 14.7047 6.5225
RightHand  -0.321303 2.69186 -4.82949
LeftUpLeg  -9.44417 0.611697 -15.8677
LeftLeg  18.3243 22.8189 5.20465
LeftFoot  -4.73699 -0.904936 16.069
LeftToes  2.58842e-009 -1.78069e-010 3.24654e-012
776
root  16.4942 38.1371 16.4723 171.343 20.5258 173.885
RightUpLeg  -8.92533 -6.75634 -16.0281
RightLeg  64.6985 3.01835 6.3981
RightFoot  4.0892 -1.60338 11.9979
RightToes  5.82063e-011 0 -3.6325e-017
Spine  -0.280658 -0.361617 -6.04506
Spine1  12.1289 0.822901 -7.69641
HEad  -5.37807 18.4323 -18.1897
LeftShoulder1  0.368195 2.44688 -28.6725
LeftArm  2.75061 8.10749 -41.7427
LeftForeArm  22.8248 -15.5164 -6.6842
LeftHand  0.00844514 2.96884 -1.26106
RightShoulder  -0.508117 -5.05798 25.8752
RightArm  17.7344 -5.35173 50.0707
RightForeArm  3.29673 15.8393 5.96395
RightHand  -0.3992 3.03859 -5.72537
LeftUpLeg  -6.77332 1.06681 -15.7689
LeftLeg  18.6298 18.3562 4.60934
LeftFoot  -5.95569 -0.731294 16.1999
LeftToes  2.58842e-009 -1.78069e-010 3.24654e-012
777
root  16.8298 38.248 15.8514 171.038 15.7135 175.018
RightUpLeg  -10.1774 -5.02712 -14.7942
RightLeg  61.8126 1.65859 2.88426
RightFoot  3.19777 -1.20036 9.5612
RightToes  5.82063e-011 0 -3.6325e-017
Spine  0.89226 -0.409115 -6.02615
Spine1  12.0552 0.343479 -6.53637
HEad  -0.768425 19.1236 -15.6042
LeftShoulder1  0.399797 2.36382 -28.9487
LeftArm  6.9917 5.93375 -42.8731
LeftForeArm  19.8222 -18.7588 -5.45351
LeftHand  0.0138435 2.27655 -0.916739
RightShoulder  -0.472722 -4.9895 24.9661
RightArm  16.1617 -5.81933 49.8963
RightForeArm  0.79694 16.8125 5.52665
RightHand  -0.495104 3.29072 -6.8701
LeftUpLeg  -4.09352 1.34929 -15.2275
LeftLeg  18.3644 13.6729 3.63
LeftFoot  -6.75195 -0.608503 16.0723
LeftToes  2.58842e-009 -1.78069e-010 3.24654e-012
